<svg width="24" height="24" viewBox="0 0 24 24" fill="none" xmlns="http://www.w3.org/2000/svg">
<path d="M16 2C15.2044 2 14.4413 2.31607 13.8787 2.87868C13.3161 3.44129 13 4.20435 13 5V19C13 19.7956 13.3161 20.5587 13.8787 21.1213C14.4413 21.6839 15.2044 22 16 22C16.7956 22 17.5587 21.6839 18.1213 21.1213C18.6839 20.5587 19 19.7956 19 19V5C19 4.20435 18.6839 3.44129 18.1213 2.87868C17.5587 2.31607 16.7956 2 16 2ZM8 2C7.20435 2 6.44129 2.31607 5.87868 2.87868C5.31607 3.44129 5 4.20435 5 5V19C5 19.7956 5.31607 20.5587 5.87868 21.1213C6.44129 21.6839 7.20435 22 8 22C8.79565 22 9.55871 21.6839 10.1213 21.1213C10.6839 20.5587 11 19.7956 11 19V5C11 4.20435 10.6839 3.44129 10.1213 2.87868C9.55871 2.31607 8.79565 2 8 2Z" fill="white"/>
</svg>
